# xmcd
#
# Track frame offsets: 
#        150
#        21920
#        41670
#        65005
#        85440
#        108797
#        127387
#        145435
#        172855
#        189377
#        209002
#
# Disc length: 3017 seconds
#
# Revision: 3
# Processed by: cddbd v1.5.2PL0 Copyright (c) Steve Scherf et al.
# Submitted via: ExactAudioCopy v0.99pb5
#
DISCID=a60bc70b
DTITLE=Tone-Loc - Loc-Ed After Dark
DYEAR=1989
DGENRE=Blues
TTITLE0=On Fire (Remix)
TTITLE1=Wild Thing
TTITLE2=Loc'Ed After Dark
TTITLE3=I Got It Goin' On
TTITLE4=Cutting Rhythms
TTITLE5=Funky Cold Medina
TTITLE6=Next Episode
TTITLE7=Cheeba Cheeba
TTITLE8=Don't Get Close
TTITLE9=Loc'In On The Shaw
TTITLE10=The Homies
EXTD=\n\nYEAR: 2000  ID3G:   0
EXTT0=
EXTT1=
EXTT2=
EXTT3=
EXTT4=
EXTT5=
EXTT6=
EXTT7=
EXTT8=
EXTT9=
EXTT10=
PLAYORDER=
